<svg width="24" height="24" xmlns="http://www.w3.org/2000/svg" viewBox="0 0 1024 1024">
    <g>
        <path d="M38.039 507.596a66.133 66.133 0 1 0 132.266-0.461 66.133 66.133 0 1 0-132.266 0.461zM128.554 769.674a66.133 66.133 0 1 0 132.266-0.461 66.133 66.133 0 1 0-132.266 0.461zM365.844 911.78a66.133 66.133 0 1 0 132.266-0.461 66.133 66.133 0 1 0-132.266 0.461zM657.923 857.427a66.133 66.133 0 1 0 132.266-0.462 66.133 66.133 0 1 0-132.266 0.462zM827.881 656.306a66.133 66.133 0 1 0 132.266-0.461 66.133 66.133 0 1 0-132.266 0.462zM152.307 240.536a87.467 87.467 0 1 0 174.932-0.61 87.467 87.467 0 1 0-174.932 0.61zM437.837 145.673a104.533 104.533 0 1 0 209.065-0.73 104.533 104.533 0 1 0-209.065 0.73zM700.98 360.215a123.733 123.733 0 1 0 247.465-0.864 123.733 123.733 0 1 0-247.465 0.864z"></path>
        <animateTransform attributeName="transform" begin="0s" dur="3s" type="rotate" from="0 512 512" to="360 512 512" repeatCount="indefinite"/>
    </g>
</svg>

